<?xml version="1.0" encoding="UTF-8"?>
<svg xmlns="http://www.w3.org/2000/svg" xmlns:xlink="http://www.w3.org/1999/xlink" version="1.1" viewBox="0 0 700 700">
  <defs>
    <style>
      .cls-1 {
        fill: none;
      }

      .cls-2 {
        fill: url(#h);
      }

      .cls-3 {
        fill: url(#g);
      }

      .cls-4 {
        fill: url(#f);
      }

      .cls-5 {
        fill: url(#e);
      }

      .cls-6 {
        fill: url(#d);
      }

      .cls-7 {
        fill: url(#c);
      }

      .cls-8 {
        fill: url(#b);
      }

      .cls-9 {
        fill: url(#a);
      }

      .cls-10 {
        fill: #b9703e;
      }

      .cls-11, .cls-12, .cls-13, .cls-14, .cls-15, .cls-16, .cls-17, .cls-18 {
        stroke: #fff;
        stroke-width: .5px;
      }

      .cls-11, .cls-19 {
        fill: #fafafa;
      }

      .cls-12 {
        fill: #f2f2f2;
      }

      .cls-20 {
        fill: #d78955;
      }

      .cls-13 {
        fill: #f7f7f7;
      }

      .cls-14, .cls-21 {
        fill: #fff;
      }

      .cls-15 {
        fill: #f5f5f5;
      }

      .cls-22 {
        fill: #494a47;
      }

      .cls-16 {
        fill: #efefef;
      }

      .cls-17 {
        fill: #bc4749;
      }

      .cls-23 {
        fill: #333331;
      }

      .cls-18 {
        fill: #fcfcfc;
      }
    </style>
    <pattern id="a" x="0" y="0" width="3" height="3" patternTransform="translate(20.9 -66.1) scale(28.4 -28.4)" patternUnits="userSpaceOnUse" viewBox="0 0 3 3">
      <g>
        <rect class="cls-1" width="3" height="3"/>
        <rect id="s" class="cls-18" width="1" height="1"/>
        <rect id="s-2" data-name="s" class="cls-18" x="1" width="1" height="1"/>
        <rect id="s-3" data-name="s" class="cls-11" x="2" width="1" height="1"/>
        <rect id="s-4" data-name="s" class="cls-11" y="2" width="1" height="1"/>
        <rect id="s-5" data-name="s" class="cls-13" x="2" y="2" width="1" height="1"/>
        <rect id="s-6" data-name="s" class="cls-13" x="1" y="1" width="1" height="1"/>
      </g>
    </pattern>
    <pattern id="b" x="0" y="0" width="7" height="11" patternTransform="translate(134.6 -9.2) scale(28.4 -28.4)" patternUnits="userSpaceOnUse" viewBox="0 0 7 11">
      <g>
        <rect class="cls-1" width="7" height="11"/>
        <g>
          <rect id="s-7" data-name="s" class="cls-15" y="10" width="1" height="1"/>
          <rect id="s-8" data-name="s" class="cls-15" y="5" width="1" height="1"/>
          <rect id="s-9" data-name="s" class="cls-15" x="1" width="1" height="1"/>
          <rect id="s-10" data-name="s" class="cls-15" x="2" y="9" width="1" height="1"/>
          <rect id="s-11" data-name="s" class="cls-15" x="2" y="6" width="1" height="1"/>
          <rect id="s-12" data-name="s" class="cls-15" x="3" y="2" width="1" height="1"/>
          <rect id="s-13" data-name="s" class="cls-15" x="4" y="7" width="1" height="1"/>
          <rect id="s-14" data-name="s" class="cls-15" x="4" y="3" width="1" height="1"/>
          <rect id="s-15" data-name="s" class="cls-15" x="5" y="8" width="1" height="1"/>
          <rect id="s-16" data-name="s" class="cls-15" x="5" y="4" width="1" height="1"/>
          <rect id="s-17" data-name="s" class="cls-15" x="6" y="1" width="1" height="1"/>
        </g>
      </g>
    </pattern>
    <pattern id="h" x="0" y="0" width="5" height="13" patternTransform="translate(106.2 -123) scale(28.4 -28.4)" patternUnits="userSpaceOnUse" viewBox="0 0 5 13">
      <g>
        <rect class="cls-1" width="5" height="13"/>
        <g>
          <rect id="s-18" data-name="s" class="cls-15" y="7" width="1" height="1"/>
          <rect id="s-19" data-name="s" class="cls-15" y="4" width="1" height="1"/>
          <rect id="s-20" data-name="s" class="cls-15" x="1" y="11" width="1" height="1"/>
          <rect id="s-21" data-name="s" class="cls-15" x="1" y="3" width="1" height="1"/>
          <rect id="s-22" data-name="s" class="cls-15" x="1" width="1" height="1"/>
          <rect id="s-23" data-name="s" class="cls-15" x="2" y="12" width="1" height="1"/>
          <rect id="s-24" data-name="s" class="cls-15" x="2" y="8" width="1" height="1"/>
          <rect id="s-25" data-name="s" class="cls-15" x="3" y="10" width="1" height="1"/>
          <rect id="s-26" data-name="s" class="cls-15" x="3" y="6" width="1" height="1"/>
          <rect id="s-27" data-name="s" class="cls-15" x="3" y="1" width="1" height="1"/>
          <rect id="s-28" data-name="s" class="cls-15" x="4" y="9" width="1" height="1"/>
          <rect id="s-29" data-name="s" class="cls-15" x="4" y="5" width="1" height="1"/>
          <rect id="s-30" data-name="s" class="cls-15" x="4" y="2" width="1" height="1"/>
        </g>
      </g>
    </pattern>
    <pattern id="c" x="0" y="0" width="17" height="13" patternTransform="translate(163.1 -123) scale(28.4 -28.4)" patternUnits="userSpaceOnUse" viewBox="0 0 17 13">
      <g>
        <rect class="cls-1" width="17" height="13"/>
        <g>
          <rect id="s-31" data-name="s" class="cls-12" y="1" width="1" height="1"/>
          <rect id="s-32" data-name="s" class="cls-12" x="2" y="3" width="1" height="1"/>
          <rect id="s-33" data-name="s" class="cls-12" x="5" width="1" height="1"/>
          <rect id="s-34" data-name="s" class="cls-12" x="9" y="8" width="1" height="1"/>
          <rect id="s-35" data-name="s" class="cls-12" x="12" y="11" width="1" height="1"/>
          <rect id="s-36" data-name="s" class="cls-12" x="16" y="6" width="1" height="1"/>
        </g>
      </g>
    </pattern>
    <pattern id="d" x="0" y="0" width="19" height="17" patternTransform="translate(276.8 -94.5) scale(28.4 -28.4)" patternUnits="userSpaceOnUse" viewBox="0 0 19 17">
      <g>
        <rect class="cls-1" width="19" height="17"/>
        <g>
          <rect id="s-37" data-name="s" class="cls-14" y="7" width="1" height="1"/>
          <rect id="s-38" data-name="s" class="cls-14" x="16" y="11" width="1" height="1"/>
          <rect id="s-39" data-name="s" class="cls-14" x="14" y="14" width="1" height="1"/>
          <rect id="s-40" data-name="s" class="cls-14" x="11" y="5" width="1" height="1"/>
          <rect id="s-41" data-name="s" class="cls-14" x="6" y="2" width="1" height="1"/>
        </g>
        <g>
          <rect id="s-42" data-name="s" class="cls-16" x="3" y="3" width="1" height="1"/>
          <rect id="s-43" data-name="s" class="cls-16" x="9" y="9" width="1" height="1"/>
          <rect id="s-44" data-name="s" class="cls-16" x="13" y="6" width="1" height="1"/>
          <rect id="s-45" data-name="s" class="cls-16" x="15" y="12" width="1" height="1"/>
          <rect id="s-46" data-name="s" class="cls-16" x="18" y="15" width="1" height="1"/>
        </g>
      </g>
    </pattern>
    <pattern id="e" x="0" y="0" width="47" height="53" patternTransform="translate(1300.6 -578) scale(28.4 -28.4)" patternUnits="userSpaceOnUse" viewBox="0 0 47 53">
      <g>
        <rect class="cls-1" width="47" height="53"/>
        <g>
          <rect id="s-47" data-name="s" class="cls-17" x="2" y="47" width="1" height="1"/>
          <rect id="s-48" data-name="s" class="cls-17" x="16" y="14" width="1" height="1"/>
          <rect id="s-49" data-name="s" class="cls-17" x="46" y="10" width="1" height="1"/>
          <rect id="s-50" data-name="s" class="cls-17" x="29" y="32" width="1" height="1"/>
        </g>
      </g>
    </pattern>
    <pattern id="f" x="0" y="0" width="59" height="71" patternTransform="translate(902.5 -1004.6) scale(28.4 -28.4)" patternUnits="userSpaceOnUse" viewBox="0 0 59 71">
      <g>
        <rect class="cls-1" width="59" height="71"/>
        <g>
          <rect id="s-51" data-name="s" class="cls-17" x="33" y="57" width="1" height="1"/>
          <rect id="s-52" data-name="s" class="cls-17" x="27" y="16" width="1" height="1"/>
          <rect id="s-53" data-name="s" class="cls-17" x="55" y="15" width="1" height="1"/>
        </g>
      </g>
    </pattern>
    <pattern id="g" x="0" y="0" width="139" height="97" patternTransform="translate(3746.4 -2227.5) scale(28.4 -28.4)" patternUnits="userSpaceOnUse" viewBox="0 0 139 97">
      <g>
        <rect class="cls-1" width="139" height="97"/>
        <g>
          <rect id="s-54" data-name="s" class="cls-17" x="11" y="88" width="1" height="1"/>
          <rect id="s-55" data-name="s" class="cls-17" x="51" y="83" width="1" height="1"/>
          <rect id="s-56" data-name="s" class="cls-17" x="17" y="23" width="1" height="1"/>
          <rect id="s-57" data-name="s" class="cls-17" x="99" y="39" width="1" height="1"/>
        </g>
      </g>
    </pattern>
  </defs>
  <!-- Generator: Adobe Illustrator 28.6.0, SVG Export Plug-In . SVG Version: 1.2.0 Build 709)  -->
  <g>
    <g id="Layer_1">
      <rect class="cls-21" x="-218.8" width="1137.6" height="853.2"/>
      <rect class="cls-9" x="-218.8" width="1137.6" height="853.2"/>
      <rect class="cls-8" x="-218.8" width="1137.6" height="853.2"/>
      <rect class="cls-2" x="-218.8" width="1137.6" height="853.2"/>
      <rect class="cls-7" x="-218.8" width="1137.6" height="853.2"/>
      <rect class="cls-6" x="-218.8" width="1137.6" height="853.2"/>
      <rect class="cls-5" x="-218.8" width="1137.6" height="853.2"/>
      <rect class="cls-4" x="-218.8" width="1137.6" height="853.2"/>
      <rect class="cls-3" x="-218.8" width="1137.6" height="853.2"/>
    </g>
    <g id="Layer_2">
      <g id="Layer_2-2" data-name="Layer_2">
        <g id="gH9HqS.tif">
          <g>
            <path d="M74,270.8c0-3.7,0-7.4,0-11.1,2.6-34,4.1-68.1,7.9-102,4.8-42.6,53-68.7,91.5-50.2,11.2,5.4,21.8,6.4,33.4,2.8,7.6-2.4,15.1-5.2,23-6.4,25.8-4.1,50.6,7.2,64.2,29.4,1.7,2.8,3.5,4,6.8,4,32.5-.1,65-.1,97.5,0,3.2,0,5.2-.8,6.9-3.7,15.3-25.3,44.8-36.3,73-27.5,3.6,1.1,7.3,2,10.9,3.3,13.2,4.7,25.4,3.7,38.6-2.5,37.7-17.5,84.8,9.2,89.8,50.6,2.8,22.8,3.8,45.9,5.5,68.9.9,12.5,1.7,25,2.7,37.4.7,8.6-2.1,15.3-9.7,19.7-7.2,4.1-14.9,3.1-22.1-3-11.4-9.6-22.7-19.2-34-28.9-2.1-1.8-4.2-3.5-7.9-2.4,2.8,7.3,5.7,14.6,8.5,21.9,5.5,14.3,11.6,28.4,13.9,43.9,3.4,22.8.9,44.8-7.5,66.2-1.2,2.9-1.8,5.8-1.6,8.9.8,19.2,1.6,38.4,2.3,57.6,0,2.4,0,4.6-1.1,6.9-24.7,45.3-58.3,81.8-105.1,105-6.5,3.2-13.5,5.4-20.7,6.3-2.7.4-4.6,1.5-6.3,3.6-14.7,17.6-33.5,27.2-56.4,29h-56.7c-22.8-1.9-41.6-11.6-56.3-29.2-1.3-1.6-2.6-2.8-4.8-3.2-18-2.7-33.6-11.1-48.1-21.5-32.1-23.1-58.2-51.7-77.2-86.5-2.2-4.1-3.2-8.2-3-12.9.9-18.7,1.6-37.3,2.4-56,.1-2.6-.3-4.9-1.2-7.4-12.2-31-12.5-62.2-.7-93.3,4.9-13,10.1-25.9,15.2-39.1-3.3-1.6-5.5-.1-7.7,1.8-11.6,9.9-23.1,19.9-34.9,29.6-12,9.8-26.8,4.9-31.1-10Z"/>
            <path class="cls-22" d="M459.8,113.8c9.9-.2,18.7,4.2,28,6.4,5.3,1.3,10.6,2.5,15.9,3.4,9.1,1.6,17.1-1.8,25-5.5,28.5-13.4,60.9-1.6,74.1,26.9,3.2,6.8,4.5,14.1,5.1,21.5,1.3,18.2,2.8,36.4,4.1,54.6,1.1,15.2,2.3,30.3,3.1,45.5.2,3.1-1.4,5.9-4.6,7.4-3.5,1.7-6.3.7-9-1.5-11.4-9.6-23.1-18.8-33.9-28.9-4.9-4.6-10.1-5.4-16.1-6.2-22-2.8-40.8-13.4-58.6-25.7-22.5-15.5-42.6-33.8-61.7-53.1-5.1-5.1-9.8-10.7-14.9-15.8-2.2-2.2-1.9-3.7-.3-6,10.6-15.3,25.6-22.3,43.8-23Z"/>
            <path class="cls-20" d="M412,363.4c9.3,2.1,18.8,3.9,28,6.5,14.1,3.9,23.7,13.7,29.2,26.6,8.3,19.3,14.9,39.3,18,60.2,1.6,10.4.3,20.7-2.6,30.7-4.9,16.3-14,30.2-25.4,42.6-5.8,6.3-13.3,10-21.8,11.4-6.6,1.1-12.7.4-18.6-3.7-19.8-13.7-39.9-27.1-59.9-40.5-2.7-1.8-3.8-3.7-3.7-7,.2-13.1.2-26.1,0-39.2,0-3,.7-4.4,4-5.1,6.9-1.3,12.9-4.7,18-9.6,8.4-8.2,16.8-16.5,25.3-24.8,6.4-6.3,9.8-13.8,9.6-22.9-.2-8.2-.1-16.3-.1-25.2Z"/>
            <path class="cls-10" d="M433.2,552.6c-13.2,21.1-30.9,33.4-54.6,34.7-19.2,1.1-38.5,1.1-57.6,0-23.6-1.4-41.3-13.8-54.3-34.8,10.2.9,17.2-3.7,24.3-8.5,18.1-12.4,36.4-24.5,54.4-37,3.3-2.3,5.6-2.5,9.1-.1,18.8,13,37.9,25.4,56.7,38.5,6.3,4.5,12.9,7.6,22,7.2Z"/>
            <path class="cls-22" d="M562.1,308.8c-5.2-20.8-14.8-40-22-60.1-.9-2.4-3-2.9-5.1-3.5-11-3.3-21.4-8-31.3-13.7-29.8-17.2-55.1-39.8-79.3-64-6.1-6.2-11.3-13.2-18-18.8-1.5-1.5-3.4-.9-5.2-.9-29.8,0-59.5.5-89.2-.3-12.8-.3-23.6,1.1-30.4,13.2-.3.5-.8.8-1.1,1.2-16.2,16.9-33.2,32.9-51.7,47.2-18.9,14.7-38.8,28-61.9,35.2-4.7,1.5-7.2,3.8-8.9,8.3-4.7,12.7-9.8,25.3-14.7,37.9-11.2,28.9-11.6,57.8-.3,86.7,1.5,3.8,2.2,7.5,2.1,11.6-.5,13.4-.8,26.8-1.2,40.2-.1,3.3-.3,6.5-.8,9.7-.8,5.7-.5,11.3,2.7,16.8,20.8,35.9,48.1,65.5,83.4,87.5,7.7,4.8,15.9,8.9,25.3,10.1-5.4-5.4-13-7.3-18.6-12.3-5.7-5.2-10.2-11.2-14.6-17.4-2.1-3.4-4.2-6.8-6.4-10.1-12.2-19-15.8-40.2-12.6-62,2.7-18.8,9.3-36.8,16.2-54.5,7.6-19.5,21.1-33.6,42.5-38.5,7.6-1.7,15.2-3.2,22.8-4.9,6.3-1.4,12.4-2.8,17.7-7.3,5.3-4.5,12-6.3,19.1-6.9,17.4-1.5,34.8-.6,52.2-.6s20,1.7,27.9,8.8c2.7,2.4,5.6,3.8,9,4.5,7.8,1.6,15.5,3.6,23.3,5,25.2,4.3,41.1,19.4,49.6,42.8,4.8,13.2,8.9,26.8,12.8,40.3,3.8,13.5,4.3,27.3,2,41.3-2.9,17.8-12.1,32.4-22.1,46.7-6.6,9.4-14.7,16.9-25.5,21.3-1.9.8-4.3,1.2-4.2,4.6,8.3-1.9,15.9-5.2,23-9.4,35.8-21.7,63.3-51.5,84.7-87.2,1.6-2.7,3.7-5.5,3.6-9-.6-15.6-1.4-31.1-1.8-46.7-.3-8.6-1.1-17,2.3-25.6,8.5-21.8,10.4-44.3,4.7-67.2Z"/>
            <path class="cls-22" d="M299.1,372.4c-2.2-11.5,9.3-21.3,19.8-22.2,20.6-1.7,41.3-1.7,61.9,0,11.2,1,21.7,11,19.7,21.3-4.5-1.8-8.1-5.5-13.1-6.1-13.3-1.6-23.6,7.8-24.7,22.1-.9,12.2,2.4,23,10.6,32.1,2,2.3,2,3.4-.1,5.6-12.2,13.4-32.4,15.8-46.2,0-2.1-2.4-2.3-3.6-.1-6.2,9.3-11.1,13.1-23.6,8.7-37.8-5.1-16.6-21.2-21.2-34.7-10.1-.5.4-1.1.8-1.8,1.3Z"/>
            <path class="cls-20" d="M344.4,450.1c0-2.7-.8-3.7-3.6-4.2-6.9-1.3-12.9-4.6-18-9.5-8.7-8.5-17.4-17-26-25.5-6.2-6.2-9.3-13.7-9.2-22.5.1-8.2,0-16.4,0-24.8-3.6,1-7.5,1.1-10.9,2.9-22.5,2.6-39.1,9.1-50.1,38.9-4.3,11.7-7.8,23.7-11.2,35.7-10.2,36,2.5,65.5,27.4,90.8,7.7,7.8,17.9,11.5,29.3,9.4.5,0,1.1-.2,1.6-.3,1.8.2,3.1-.7,4.5-1.6,21-14.2,42.1-28.4,63.1-42.6,2-1.3,3-2.6,3-5.2,0-13.9,0-27.7.1-41.5Z"/>
            <path class="cls-22" d="M283.7,137.2c-6.9-10.7-16.7-17.4-28.7-21.1-11.9-3.7-23.5-2.4-35.1,1.7-17.9,6.4-35.5,9.5-53.2-1.3-6.3-3.8-14.1-4.4-21.7-3.5-20,.6-35.1,9.9-45.5,26.7-6.3,10.1-7.6,21.5-8.1,33.3-.8,17.1-2.7,34.1-4,51.2-1.1,13.8-2,27.7-2.9,41.6-.2,3.3.7,6.1,3.6,8s6,2,8.6-.1c2.8-2.3,6.2-3.8,8.1-7.1h0c1.2-.8,2.5-1.4,3.6-2.4,8.8-7.5,17.6-15.1,26.3-22.7,1.9-1.7,3.8-3.3,6.6-3.4,17.9-.6,33.8-7.2,49-16,35.9-20.9,65.4-49.5,93.5-79.7,1.7-2.1,1.1-3.4-.1-5.2Z"/>
            <path class="cls-23" d="M326.6,390.8c-.6,8-2.5,14.7-7.1,20.4-2.2,2.8-4.1,3.7-6.8.5-3.5-4.2-7.9-7.4-11-12-2.1-3.2-2.5-6.2-1.1-9.7,1.8-4.7,4.7-8.6,8.6-11.7,5.3-4.1,11.8-2.5,15.1,3.4,1.7,3.2,1.3,6.7,2.3,9.1Z"/>
            <path class="cls-23" d="M373.7,391.2c-.3-2.7.2-5.9,1.5-8.9,2.7-6.4,9.7-8.2,15.3-3.9,4.1,3.2,7,7.2,8.8,12.1,1.7,4.5.2,8.2-2.8,11.4-3.3,3.6-6.9,6.9-10.3,10.4-1.6,1.7-2.6,1.6-4.4,0-5-4.6-8.1-12.1-8.1-21.1Z"/>
            <path d="M259.2,278.3c-21.6-.1-39.6-13.1-43.6-28.9-2.9-11.4,2.5-21.6,13.6-25.5,11.3-4,21.8-1.5,31.9,3.8,4.7,2.4,8.8,5.7,12.3,9.7,6.8,7.9,10.4,16.8,6.4,27.1-4.2,10.8-13.6,13.5-20.6,13.8Z"/>
            <path d="M440.1,278.3c-6.4-.3-14.6-3-19.3-11.8-4.5-8.4-2.6-16.5,2-24.2,8-13.3,27-21.8,41.4-19.9,19.7,2.7,27.5,21.7,14.4,38.7-8.3,10.6-22.1,17.2-38.5,17.2Z"/>
            <path d="M451.3,339.4c-13.6-.1-24.3-11-24.2-24.7.1-12.8,11.6-24.2,24.4-24.3,13.5-.1,24.7,11.3,24.6,25.1,0,13.8-10.7,23.9-24.8,23.9Z"/>
            <path d="M247.7,339.4c-13.2-.1-24.3-11.2-24.2-24.2.1-13.4,11.9-25,25.2-24.7,13.3.3,23.9,11.6,23.8,25.2,0,13.7-10.6,23.8-24.8,23.7Z"/>
            <path class="cls-20" d="M255.5,267.4c-12.3-.1-25.5-9-28.9-19.4-2.2-6.8.7-12.3,7.6-14.2,12.5-3.6,30.3,5.3,35.2,17.4,3.8,9.6-1.9,16.3-13.9,16.2Z"/>
            <path class="cls-20" d="M445.5,267.5c-7-.1-12.2-1-15.1-6.3-2.9-5.4-.6-10.4,2.7-14.6,7.8-9.8,18-15.1,30.8-13.1,9.3,1.5,12.8,8.5,8.4,16.9-6,11.2-16.1,16-26.8,17.1Z"/>
            <path class="cls-19" d="M458.8,310.1c-.1,4-3.5,7.2-7.4,7.1-3.9-.2-7.1-3.6-6.9-7.6.1-4,3.6-7.2,7.4-7.1,3.9.1,7,3.5,6.9,7.6Z"/>
            <path class="cls-19" d="M255.3,309.7c.1,4.1-3.1,7.4-7.1,7.4s-7.3-3.3-7.4-7.2c-.1-3.9,3.3-7.4,7.2-7.4,4-.1,7.3,3.2,7.3,7.2Z"/>
          </g>
        </g>
      </g>
    </g>
  </g>
</svg>