<?xml version="1.0" encoding="UTF-8"?>
<svg xmlns="http://www.w3.org/2000/svg" version="1.1" viewBox="0 0 700 700">
  <defs>
    <style>
      .cls-1 {
        fill: #b9703e;
      }

      .cls-2 {
        fill: #d78955;
      }

      .cls-3 {
        fill: #494a47;
      }

      .cls-4 {
        fill: #fafafa;
      }

      .cls-5 {
        fill: #333331;
      }
    </style>
  </defs>
  <!-- Generator: Adobe Illustrator 28.6.0, SVG Export Plug-In . SVG Version: 1.2.0 Build 709)  -->
  <g>
    <g id="Layer_1">
      <g id="Layer_1-2" data-name="Layer_1">
        <g id="Layer_2">
          <g id="gH9HqS.tif">
            <g>
              <path d="M0,249.6c0-4.7,0-9.4.1-14.1,3.3-43.1,5.2-86.4,10-129.4,6.1-54,67.2-87.1,116.1-63.7,14.2,6.8,27.6,8.1,42.4,3.6,9.6-3,19.2-6.6,29.2-8.1,32.7-5.2,64.2,9.1,81.4,37.3,2.2,3.6,4.4,5.1,8.6,5.1,41.2,0,82.4,0,123.7,0,4.1,0,6.6-1,8.8-4.7,19.4-32.1,56.8-46,92.6-34.9,4.6,1.4,9.3,2.5,13.8,4.2,16.7,6,32.2,4.7,49-3.2,47.8-22.2,107.6,11.7,113.9,64.2,3.6,28.9,4.8,58.2,7,87.4,1.1,15.9,2.2,31.7,3.4,47.4.9,10.9-2.7,19.4-12.3,25-9.1,5.2-18.9,3.9-28-3.8-14.5-12.2-28.8-24.4-43.1-36.7-2.7-2.3-5.3-4.4-10-3,3.6,9.3,7.2,18.5,10.8,27.8,7,18.1,14.7,36,17.6,55.7,4.3,28.9,1.1,56.8-9.5,84-1.5,3.7-2.3,7.4-2,11.3,1,24.4,2,48.7,2.9,73.1,0,3,0,5.8-1.4,8.8-31.3,57.5-73.9,103.7-133.3,133.2-8.2,4.1-17.1,6.8-26.3,8-3.4.5-5.8,1.9-8,4.6-18.6,22.3-42.5,34.5-71.5,36.8h-71.9c-28.9-2.4-52.8-14.7-71.4-37-1.6-2-3.3-3.6-6.1-4.1-22.8-3.4-42.6-14.1-61-27.3-40.7-29.3-73.8-65.6-97.9-109.7-2.8-5.2-4.1-10.4-3.8-16.4,1.1-23.7,2-47.3,3-71,0-3.3-.4-6.2-1.5-9.4-15.5-39.3-15.9-78.9-.9-118.3,6.2-16.5,12.8-32.8,19.3-49.6-4.2-2-7-.1-9.8,2.3-14.7,12.6-29.3,25.2-44.3,37.5-15.4,12.2-34.1,6-39.6-12.9Z"/>
              <path class="cls-3" d="M489.3,50.5c12.6-.3,23.7,5.3,35.5,8.1,6.7,1.6,13.4,3.2,20.2,4.3,11.5,2,21.7-2.3,31.7-7,36.1-17,77.2-2,94,34.1,4.1,8.6,5.7,17.9,6.5,27.3,1.6,23.1,3.6,46.2,5.2,69.3,1.4,19.3,2.9,38.4,3.9,57.7.3,3.9-1.8,7.5-5.8,9.4-4.4,2.2-8,.9-11.4-1.9-14.5-12.2-29.3-23.8-43-36.7-6.2-5.8-12.8-6.8-20.4-7.9-27.9-3.6-51.7-17-74.3-32.6-28.5-19.7-54-42.9-78.3-67.3-6.5-6.5-12.4-13.6-18.9-20-2.8-2.8-2.4-4.7-.4-7.6,13.4-19.4,32.5-28.3,55.6-29.2h-.1Z"/>
              <path class="cls-2" d="M428.7,367c11.8,2.7,23.8,4.9,35.5,8.2,17.9,4.9,30.1,17.4,37,33.7,10.5,24.5,18.9,49.8,22.8,76.4,2,13.2.4,26.3-3.3,38.9-6.2,20.7-17.8,38.3-32.2,54-7.4,8-16.9,12.7-27.6,14.5-8.4,1.4-16.1.5-23.6-4.7-25.1-17.4-50.6-34.4-76-51.4-3.4-2.3-4.8-4.7-4.7-8.9.3-16.6.3-33.1,0-49.7,0-3.8.9-5.6,5.1-6.5,8.8-1.6,16.4-6,22.8-12.2,10.7-10.4,21.3-20.9,32.1-31.5,8.1-8,12.4-17.5,12.2-29-.3-10.4-.1-20.7-.1-32v.2Z"/>
              <path class="cls-1" d="M455.6,607c-16.7,26.8-39.2,42.4-69.3,44-24.4,1.4-48.8,1.4-73.1,0-29.9-1.8-52.4-17.5-68.9-44.1,12.9,1.1,21.8-4.7,30.8-10.8,23-15.7,46.2-31.1,69-46.9,4.2-2.9,7.1-3.2,11.5,0,23.8,16.5,48.1,32.2,71.9,48.8,8,5.7,16.4,9.6,27.9,9.1h.2Z"/>
              <path class="cls-3" d="M619.1,297.8c-6.6-26.4-18.8-50.7-27.9-76.2-1.1-3-3.8-3.7-6.5-4.4-14-4.2-27.1-10.1-39.7-17.4-37.8-21.8-69.9-50.5-100.6-81.2-7.7-7.9-14.3-16.7-22.8-23.8-1.9-1.9-4.3-1.1-6.6-1.1-37.8,0-75.5.6-113.1-.4-16.2-.4-29.9,1.4-38.6,16.7-.4.6-1,1-1.4,1.5-20.5,21.4-42.1,41.7-65.6,59.9-24,18.6-49.2,35.5-78.5,44.6-6,1.9-9.1,4.8-11.3,10.5-6,16.1-12.4,32.1-18.6,48.1-14.2,36.7-14.7,73.3-.4,110,1.9,4.8,2.8,9.5,2.7,14.7-.6,17-1,34-1.5,51,0,4.2-.4,8.2-1,12.3-1,7.2-.6,14.3,3.4,21.3,26.4,45.5,61,83.1,105.8,111,9.8,6.1,20.2,11.3,32.1,12.8-6.8-6.8-16.5-9.3-23.6-15.6-7.2-6.6-12.9-14.2-18.5-22.1-2.7-4.3-5.3-8.6-8.1-12.8-15.5-24.1-20-51-16-78.6,3.4-23.8,11.8-46.7,20.5-69.1,9.6-24.7,26.8-42.6,53.9-48.8,9.6-2.2,19.3-4.1,28.9-6.2,8-1.8,15.7-3.6,22.4-9.3,6.7-5.7,15.2-8,24.2-8.8,22.1-1.9,44.1-.8,66.2-.8s25.4,2.2,35.4,11.2c3.4,3,7.1,4.8,11.4,5.7,9.9,2,19.7,4.6,29.6,6.3,32,5.5,52.1,24.6,62.9,54.3,6.1,16.7,11.3,34,16.2,51.1,4.8,17.1,5.5,34.6,2.5,52.4-3.7,22.6-15.3,41.1-28,59.2-8.4,11.9-18.6,21.4-32.3,27-2.4,1-5.5,1.5-5.3,5.8,10.5-2.4,20.2-6.6,29.2-11.9,45.4-27.5,80.3-65.3,107.4-110.6,2-3.4,4.7-7,4.6-11.4-.8-19.8-1.8-39.4-2.3-59.2-.4-10.9-1.4-21.6,2.9-32.5,10.8-27.6,13.2-56.2,6-85.2h0Z"/>
              <path class="cls-3" d="M285.5,378.4c-2.8-14.6,11.8-27,25.1-28.2,26.1-2.2,52.4-2.2,78.5,0,14.2,1.3,27.5,14,25,27-5.7-2.3-10.3-7-16.6-7.7-16.9-2-29.9,9.9-31.3,28-1.1,15.5,3,29.2,13.4,40.7,2.5,2.9,2.5,4.3-.1,7.1-15.5,17-41.1,20-58.6,0-2.7-3-2.9-4.6-.1-7.9,11.8-14.1,16.6-29.9,11-47.9-6.5-21.1-26.9-26.9-44-12.8-.6.5-1.4,1-2.3,1.6h0Z"/>
              <path class="cls-2" d="M343,477c0-3.4-1-4.7-4.6-5.3-8.8-1.6-16.4-5.8-22.8-12-11-10.8-22.1-21.6-33-32.3-7.9-7.9-11.8-17.4-11.7-28.5.1-10.4,0-20.8,0-31.5-4.6,1.3-9.5,1.4-13.8,3.7-28.5,3.3-49.6,11.5-63.5,49.3-5.5,14.8-9.9,30.1-14.2,45.3-12.9,45.7,3.2,83.1,34.8,115.2,9.8,9.9,22.7,14.6,37.2,11.9.6,0,1.4-.3,2-.4,2.3.3,3.9-.9,5.7-2,26.6-18,53.4-36,80-54,2.5-1.6,3.8-3.3,3.8-6.6,0-17.6,0-35.1.1-52.6v-.2Z"/>
              <path class="cls-3" d="M266,80.1c-8.8-13.6-21.2-22.1-36.4-26.8-15.1-4.7-29.8-3-44.5,2.2-22.7,8.1-45,12-67.5-1.6-8-4.8-17.9-5.6-27.5-4.4-25.4.8-44.5,12.6-57.7,33.9-8,12.8-9.6,27.3-10.3,42.2-1,21.7-3.4,43.3-5.1,64.9-1.4,17.5-2.5,35.1-3.7,52.8-.3,4.2.9,7.7,4.6,10.1,3.7,2.4,7.6,2.5,10.9-.1,3.6-2.9,7.9-4.8,10.3-9h0c1.5-1,3.2-1.8,4.6-3,11.2-9.5,22.3-19.2,33.4-28.8,2.4-2.2,4.8-4.2,8.4-4.3,22.7-.8,42.9-9.1,62.1-20.3,45.5-26.5,82.9-62.8,118.6-101.1,2.2-2.7,1.4-4.3-.1-6.6h-.1Z"/>
              <path class="cls-5" d="M320.4,401.8c-.8,10.1-3.2,18.6-9,25.9-2.8,3.6-5.2,4.7-8.6.6-4.4-5.3-10-9.4-14-15.2-2.7-4.1-3.2-7.9-1.4-12.3,2.3-6,6-10.9,10.9-14.8,6.7-5.2,15-3.2,19.2,4.3,2.2,4.1,1.6,8.5,2.9,11.5Z"/>
              <path class="cls-5" d="M380.1,402.3c-.4-3.4.3-7.5,1.9-11.3,3.4-8.1,12.3-10.4,19.4-4.9,5.2,4.1,8.9,9.1,11.2,15.3,2.2,5.7.3,10.4-3.6,14.5-4.2,4.6-8.8,8.8-13.1,13.2-2,2.2-3.3,2-5.6,0-6.3-5.8-10.3-15.3-10.3-26.8h.1Z"/>
              <path d="M234.9,259.1c-27.4-.1-50.2-16.6-55.3-36.7-3.7-14.5,3.2-27.4,17.2-32.3,14.3-5.1,27.6-1.9,40.5,4.8,6,3,11.2,7.2,15.6,12.3,8.6,10,13.2,21.3,8.1,34.4-5.3,13.7-17.2,17.1-26.1,17.5Z"/>
              <path d="M464.3,259.1c-8.1-.4-18.5-3.8-24.5-15-5.7-10.7-3.3-20.9,2.5-30.7,10.1-16.9,34.2-27.6,52.5-25.2,25,3.4,34.9,27.5,18.3,49.1-10.5,13.4-28,21.8-48.8,21.8Z"/>
              <path d="M478.5,336.6c-17.2-.1-30.8-14-30.7-31.3.1-16.2,14.7-30.7,30.9-30.8,17.1-.1,31.3,14.3,31.2,31.8-.1,17.5-13.6,30.3-31.5,30.3h.1Z"/>
              <path d="M220.3,336.6c-16.7-.1-30.8-14.2-30.7-30.7.1-17,15.1-31.7,32-31.3,16.9.4,30.3,14.7,30.2,32-.1,17.4-13.4,30.2-31.5,30.1h0Z"/>
              <path class="cls-2" d="M230.2,245.3c-15.6-.1-32.3-11.4-36.7-24.6-2.8-8.6.9-15.6,9.6-18,15.9-4.6,38.4,6.7,44.6,22.1,4.8,12.2-2.4,20.7-17.6,20.5h0Z"/>
              <path class="cls-2" d="M471.2,245.4c-8.9-.1-15.5-1.3-19.2-8-3.7-6.8-.8-13.2,3.4-18.5,9.9-12.4,22.8-19.2,39.1-16.6,11.8,1.9,16.2,10.8,10.7,21.4-7.6,14.2-20.4,20.3-34,21.7h0Z"/>
              <path class="cls-4" d="M488.1,299.4c-.1,5.1-4.4,9.1-9.4,9-4.9-.3-9-4.6-8.8-9.6.1-5.1,4.6-9.1,9.4-9,4.9.1,8.9,4.4,8.8,9.6Z"/>
              <path class="cls-4" d="M229.9,298.9c.1,5.2-3.9,9.4-9,9.4s-9.3-4.2-9.4-9.1c-.1-4.9,4.2-9.4,9.1-9.4,5.1-.1,9.3,4.1,9.3,9.1h0Z"/>
            </g>
          </g>
        </g>
      </g>
    </g>
  </g>
</svg>