<?xml version="1.0" encoding="utf-8"?>
<!-- Generator: Adobe Illustrator 28.0.0, SVG Export Plug-In . SVG Version: 6.00 Build 0)  -->
<svg version="1.1" xmlns="http://www.w3.org/2000/svg" xmlns:xlink="http://www.w3.org/1999/xlink" x="0px" y="0px"
	 viewBox="0 0 700 700" style="enable-background:new 0 0 700 700;" xml:space="preserve">
<style type="text/css">
	.st0{fill:none;}
	.st1{fill:#FCFCFC;stroke:#FFFFFF;stroke-width:0.5;}
	.st2{fill:#FAFAFA;stroke:#FFFFFF;stroke-width:0.5;}
	.st3{fill:#F7F7F7;stroke:#FFFFFF;stroke-width:0.5;}
	.st4{fill:#F5F5F5;stroke:#FFFFFF;stroke-width:0.5;}
	.st5{fill:#F2F2F2;stroke:#FFFFFF;stroke-width:0.5;}
	.st6{fill:#FFFFFF;stroke:#FFFFFF;stroke-width:0.5;}
	.st7{fill:#EFEFEF;stroke:#FFFFFF;stroke-width:0.5;}
	.st8{fill:#BC4749;stroke:#FFFFFF;stroke-width:0.5;}
	.st9{fill:#FFFFFF;}
	.st10{fill:url(#SVGID_1_);}
	.st11{fill:url(#SVGID_00000073694732003366042260000003335512702835722384_);}
	.st12{fill:url(#SVGID_00000001639519493083767650000015836150351141002393_);}
	.st13{fill:url(#SVGID_00000133489645247171793670000015680020097703022513_);}
	.st14{fill:url(#SVGID_00000108282079158753502790000016023664657224390836_);}
	.st15{fill:url(#SVGID_00000094602354011394876870000008070516876078442387_);}
	.st16{fill:url(#SVGID_00000015335530121715237350000011396780983642702255_);}
	.st17{fill:url(#SVGID_00000159462647396667917060000012941184803833354659_);}
	.st18{fill:#BDBDBD;}
	.st19{fill:#979797;}
	.st20{fill:#494A47;}
	.st21{fill:#D78955;}
	.st22{fill:#B9703E;}
	.st23{fill:#333331;}
	.st24{fill:#FAFAFA;}
</style>
<pattern  x="-610" y="-190" width="3" height="3" patternUnits="userSpaceOnUse" id="a" viewBox="0.2 -3.2 3 3" style="overflow:visible;">
	<g>
		<rect x="0.2" y="-3.2" class="st0" width="3" height="3"/>
		<g>
			<rect id="s_00000127041941009494787120000007108243975876569482_" x="0.2" y="-3.2" class="st1" width="1" height="1"/>
		</g>
		<g>
			<rect id="s_00000034802592893449398790000016442497179566699652_" x="1.2" y="-3.2" class="st1" width="1" height="1"/>
		</g>
		<g>
			<rect id="s_00000093146548135503300190000013186694903279243421_" x="2.2" y="-3.2" class="st2" width="1" height="1"/>
		</g>
		<g>
			<rect id="s_00000100362159929306261780000017965386682264070839_" x="0.2" y="-1.2" class="st2" width="1" height="1"/>
		</g>
		<g>
			<rect id="s_00000085249398550439773460000012343735578416865470_" x="2.2" y="-1.2" class="st3" width="1" height="1"/>
		</g>
		<g>
			<rect id="s_00000062157181771918257150000001060513388401992864_" x="1.2" y="-2.2" class="st3" width="1" height="1"/>
		</g>
	</g>
</pattern>
<pattern  x="-610" y="-190" width="7" height="11" patternUnits="userSpaceOnUse" id="b" viewBox="0.2 -11.2 7 11" style="overflow:visible;">
	<g>
		<rect x="0.2" y="-11.2" class="st0" width="7" height="11"/>
		<g>
			<g>
				<rect id="s_00000008864863419660923820000006473822917997227416_" x="0.2" y="-1.2" class="st4" width="1" height="1"/>
			</g>
			<g>
				<rect id="s_00000144320680434089783710000016725762834573417627_" x="0.2" y="-6.2" class="st4" width="1" height="1"/>
			</g>
			<g>
				<rect id="s_00000034054157893807337330000017686984701059949230_" x="1.2" y="-11.2" class="st4" width="1" height="1"/>
			</g>
			<g>
				<rect id="s_00000045585572844215795710000005780070462690656428_" x="2.2" y="-2.2" class="st4" width="1" height="1"/>
			</g>
			<g>
				<rect id="s_00000133531289395966875750000011400142826053861300_" x="2.2" y="-5.2" class="st4" width="1" height="1"/>
			</g>
			<g>
				<rect id="s_00000130640353254489108320000017844949554500960692_" x="3.2" y="-9.2" class="st4" width="1" height="1"/>
			</g>
			<g>
				<rect id="s_00000033340455791494699680000013130010541966028438_" x="4.2" y="-4.2" class="st4" width="1" height="1"/>
			</g>
			<g>
				<rect id="s_00000075143367832176797980000017298100594342358972_" x="4.2" y="-8.2" class="st4" width="1" height="1"/>
			</g>
			<g>
				<rect id="s_00000067195981051376878220000005280533525323600314_" x="5.2" y="-3.2" class="st4" width="1" height="1"/>
			</g>
			<g>
				<rect id="s_00000127729205618384504970000013163212902156495239_" x="5.2" y="-7.2" class="st4" width="1" height="1"/>
			</g>
			<g>
				<rect id="s_00000085957239994222593750000005520451709311109786_" x="6.2" y="-10.2" class="st4" width="1" height="1"/>
			</g>
		</g>
	</g>
</pattern>
<pattern  x="-610" y="-190" width="17" height="13" patternUnits="userSpaceOnUse" id="c" viewBox="0.2 -13 17 13" style="overflow:visible;">
	<g>
		<rect x="0.2" y="-13" class="st0" width="17" height="13"/>
		<g>
			<g>
				<rect id="s_00000036972667230512576310000004966690516159082131_" x="0.2" y="-12" class="st5" width="1" height="1"/>
			</g>
			<g>
				<rect id="s_00000101101747670032585480000016343780241407662513_" x="2.2" y="-10" class="st5" width="1" height="1"/>
			</g>
			<g>
				<rect id="s_00000104699165328126089160000016064455850943353783_" x="5.2" y="-13" class="st5" width="1" height="1"/>
			</g>
			<g>
				<rect id="s_00000004511305183322799410000010814067321896262790_" x="9.2" y="-5" class="st5" width="1" height="1"/>
			</g>
			<g>
				<rect id="s_00000057113908787345657140000017143916470638251418_" x="12.2" y="-2" class="st5" width="1" height="1"/>
			</g>
			<g>
				<rect id="s_00000144321054862437431460000004227750201878379704_" x="16.2" y="-7" class="st5" width="1" height="1"/>
			</g>
		</g>
	</g>
</pattern>
<pattern  x="-610" y="-190" width="19" height="17" patternUnits="userSpaceOnUse" id="d" viewBox="0.2 -17 19 17" style="overflow:visible;">
	<g>
		<rect x="0.2" y="-17" class="st0" width="19" height="17"/>
		<g>
			<g>
				<rect id="s_00000101812176954691535720000005251752284695268236_" x="0.2" y="-10" class="st6" width="1" height="1"/>
			</g>
			<g>
				<rect id="s_00000044170644496508341010000002623378862935523246_" x="16.2" y="-6" class="st6" width="1" height="1"/>
			</g>
			<g>
				<rect id="s_00000096748024820495245030000000670604178756247953_" x="14.2" y="-3" class="st6" width="1" height="1"/>
			</g>
			<g>
				<rect id="s_00000169529086857006794830000008393243142882401696_" x="11.2" y="-12" class="st6" width="1" height="1"/>
			</g>
			<g>
				<rect id="s_00000101818556621225424140000016696196569735352504_" x="6.2" y="-15" class="st6" width="1" height="1"/>
			</g>
		</g>
		<g>
			<g>
				<rect id="s_00000103983017591404206690000000541398337830062271_" x="3.2" y="-14" class="st7" width="1" height="1"/>
			</g>
			<g>
				<rect id="s_00000112629350374186423170000012456149848113284533_" x="9.2" y="-8" class="st7" width="1" height="1"/>
			</g>
			<g>
				<rect id="s_00000150072533482795797180000001405913536495661471_" x="13.2" y="-11" class="st7" width="1" height="1"/>
			</g>
			<g>
				<rect id="s_00000047754904380224007640000010275830683687181466_" x="15.2" y="-5" class="st7" width="1" height="1"/>
			</g>
			<g>
				<rect id="s_00000166633555296166720460000014281735138048258485_" x="18.2" y="-2" class="st7" width="1" height="1"/>
			</g>
		</g>
	</g>
</pattern>
<pattern  x="-610" y="-190" width="47" height="53" patternUnits="userSpaceOnUse" id="e" viewBox="0 -53 47 53" style="overflow:visible;">
	<g>
		<rect y="-53" class="st0" width="47" height="53"/>
		<g>
			<g>
				<rect id="s_00000111168302782918400120000001966033469420527266_" x="2" y="-6" class="st8" width="1" height="1"/>
			</g>
			<g>
				<rect id="s_00000005953683806066140540000011829051910290774424_" x="16" y="-39" class="st8" width="1" height="1"/>
			</g>
			<g>
				<rect id="s_00000041979787294116399700000002105145874582342792_" x="46" y="-43" class="st8" width="1" height="1"/>
			</g>
			<g>
				<rect id="s_00000057869067933898247010000000861133240972118406_" x="29" y="-21" class="st8" width="1" height="1"/>
			</g>
		</g>
	</g>
</pattern>
<pattern  x="-610" y="-190" width="59" height="71" patternUnits="userSpaceOnUse" id="f" viewBox="0 -71 59 71" style="overflow:visible;">
	<g>
		<rect y="-71" class="st0" width="59" height="71"/>
		<g>
			<g>
				<rect id="s_00000078011416520519198810000010423862382112710554_" x="33" y="-14" class="st8" width="1" height="1"/>
			</g>
			<g>
				<rect id="s_00000136370334690765141130000009662083485689935523_" x="27" y="-55" class="st8" width="1" height="1"/>
			</g>
			<g>
				<rect id="s_00000148636038190861335720000003320055818190317986_" x="55" y="-56" class="st8" width="1" height="1"/>
			</g>
		</g>
	</g>
</pattern>
<pattern  x="-610" y="-190" width="139" height="97" patternUnits="userSpaceOnUse" id="g" viewBox="0 -97 139 97" style="overflow:visible;">
	<g>
		<rect y="-97" class="st0" width="139" height="97"/>
		<g>
			<g>
				<rect id="s_00000109021623496164509910000009207110759479825562_" x="11" y="-9" class="st8" width="1" height="1"/>
			</g>
			<g>
				<rect id="s_00000104671108471449303670000003630759486153497512_" x="51" y="-14" class="st8" width="1" height="1"/>
			</g>
			<g>
				<rect id="s_00000158001337179599125490000001760773835187779263_" x="17" y="-74" class="st8" width="1" height="1"/>
			</g>
			<g>
				<rect id="s_00000149357282249055467120000001214990143631823796_" x="99" y="-58" class="st8" width="1" height="1"/>
			</g>
		</g>
	</g>
</pattern>
<pattern  x="-610" y="-190" width="5" height="13" patternUnits="userSpaceOnUse" id="h" viewBox="0.2 -13.2 5 13" style="overflow:visible;">
	<g>
		<rect x="0.2" y="-13.2" class="st0" width="5" height="13"/>
		<g>
			<g>
				<rect id="s_00000072985705338470411900000005068463138694630068_" x="0.2" y="-6.2" class="st4" width="1" height="1"/>
			</g>
			<g>
				<rect id="s_00000075124330435559721460000007040978206362027449_" x="0.2" y="-9.2" class="st4" width="1" height="1"/>
			</g>
			<g>
				<rect id="s_00000134223825153504740610000007803105827191843999_" x="1.2" y="-2.2" class="st4" width="1" height="1"/>
			</g>
			<g>
				<rect id="s_00000013165743793477335270000004522377271162946700_" x="1.2" y="-10.2" class="st4" width="1" height="1"/>
			</g>
			<g>
				<rect id="s_00000021081876988349216410000000166723872962268034_" x="1.2" y="-13.2" class="st4" width="1" height="1"/>
			</g>
			<g>
				<rect id="s_00000055691637166894843390000013290952870446383280_" x="2.2" y="-1.2" class="st4" width="1" height="1"/>
			</g>
			<g>
				<rect id="s_00000079475576549915253120000009841291706139989417_" x="2.2" y="-5.2" class="st4" width="1" height="1"/>
			</g>
			<g>
				<rect id="s_00000014615634198662957860000003906344512586035089_" x="3.2" y="-3.2" class="st4" width="1" height="1"/>
			</g>
			<g>
				<rect id="s_00000070835647423406087680000016803884050691148690_" x="3.2" y="-7.2" class="st4" width="1" height="1"/>
			</g>
			<g>
				<rect id="s_00000160885854573002896450000000708992375269994408_" x="3.2" y="-12.2" class="st4" width="1" height="1"/>
			</g>
			<g>
				<rect id="s_00000121238424342729082890000006757192481845320874_" x="4.2" y="-4.2" class="st4" width="1" height="1"/>
			</g>
			<g>
				<rect id="s_00000066513793954814657930000009503213950900937652_" x="4.2" y="-8.2" class="st4" width="1" height="1"/>
			</g>
			<g>
				<rect id="s_00000037666965394224942080000017907545499304173503_" x="4.2" y="-11.2" class="st4" width="1" height="1"/>
			</g>
		</g>
	</g>
</pattern>
<g id="Layer_1">
	<rect x="-218.8" class="st9" width="1137.6" height="853.2"/>
	<pattern  id="SVGID_1_" xlink:href="#a" patternTransform="matrix(28.4392 0 0 -28.4392 154094.625 -177679.8438)">
	</pattern>
	<rect x="-218.8" class="st10" width="1137.6" height="853.2"/>
	
		<pattern  id="SVGID_00000137814573387538324240000016370291638229239739_" xlink:href="#b" patternTransform="matrix(28.4392 0 0 -28.4392 154009.3125 -177915.3594)">
	</pattern>
	<rect x="-218.8" style="fill:url(#SVGID_00000137814573387538324240000016370291638229239739_);" width="1137.6" height="853.2"/>
	
		<pattern  id="SVGID_00000078744154763184380360000017416245365351643318_" xlink:href="#h" patternTransform="matrix(28.4392 0 0 -28.4392 154179.9375 -178201.75)">
	</pattern>
	<rect x="-218.8" style="fill:url(#SVGID_00000078744154763184380360000017416245365351643318_);" width="1137.6" height="853.2"/>
	
		<pattern  id="SVGID_00000057120106190069250940000002132268787818460293_" xlink:href="#c" patternTransform="matrix(28.4392 0 0 -28.4392 154208.375 -178194.3906)">
	</pattern>
	<rect x="-218.8" style="fill:url(#SVGID_00000057120106190069250940000002132268787818460293_);" width="1137.6" height="853.2"/>
	
		<pattern  id="SVGID_00000125586643940903134580000017786323874145000357_" xlink:href="#d" patternTransform="matrix(28.4392 0 0 -28.4392 154350.5781 -178226.8281)">
	</pattern>
	<rect x="-218.8" style="fill:url(#SVGID_00000125586643940903134580000017786323874145000357_);" width="1137.6" height="853.2"/>
	
		<pattern  id="SVGID_00000053502855744509691580000010806631936593370766_" xlink:href="#e" patternTransform="matrix(28.4392 0 0 -28.4392 154926.2188 -179229.7656)">
	</pattern>
	<rect x="-218.8" style="fill:url(#SVGID_00000053502855744509691580000010806631936593370766_);" width="1137.6" height="853.2"/>
	
		<pattern  id="SVGID_00000079459297601529768280000000026763577106505657_" xlink:href="#f" patternTransform="matrix(28.4392 0 0 -28.4392 154243.6875 -178622.1094)">
	</pattern>
	<rect x="-218.8" style="fill:url(#SVGID_00000079459297601529768280000000026763577106505657_);" width="1137.6" height="853.2"/>
	
		<pattern  id="SVGID_00000008123151358700577440000015597444663327652493_" xlink:href="#g" patternTransform="matrix(28.4392 0 0 -28.4392 157599.5 -180070.0625)">
	</pattern>
	<rect x="-218.8" style="fill:url(#SVGID_00000008123151358700577440000015597444663327652493_);" width="1137.6" height="853.2"/>
</g>
<g id="Layer_2">
	<g id="gH9HqS.tif">
		<g>
			<path class="st18" d="M321.1,599.9c0-0.3,0-0.6-0.1-0.9c1.9-2.2,4.6-1.9,7-1.9c14.2-0.1,28.4-0.1,42.7,0c2.5,0,5.1-0.3,7,1.9
				c0,0.3-0.1,0.6-0.1,0.9C358.9,599.9,340,599.9,321.1,599.9z"/>
			<path class="st19" d="M73.7,271.2l-0.5,0.2l-0.4-0.3c0-3.6,0-7.3,0-10.9c0.3-0.1,0.6-0.2,0.9-0.1
				C76.4,263.8,76.4,267.5,73.7,271.2z"/>
			<path d="M73.7,271.2c0-3.7,0-7.4,0.1-11.1c2.6-34,4.1-68.1,7.9-102c4.8-42.6,53-68.7,91.5-50.2c11.2,5.4,21.8,6.4,33.4,2.8
				c7.6-2.4,15.1-5.2,23-6.4c25.8-4.1,50.6,7.2,64.2,29.4c1.7,2.8,3.5,4,6.8,4c32.5-0.1,65-0.1,97.5,0c3.2,0,5.2-0.8,6.9-3.7
				c15.3-25.3,44.8-36.3,73-27.5c3.6,1.1,7.3,2,10.9,3.3c13.2,4.7,25.4,3.7,38.6-2.5c37.7-17.5,84.8,9.2,89.8,50.6
				c2.8,22.8,3.8,45.9,5.5,68.9c0.9,12.5,1.7,25,2.7,37.4c0.7,8.6-2.1,15.3-9.7,19.7c-7.2,4.1-14.9,3.1-22.1-3
				c-11.4-9.6-22.7-19.2-34-28.9c-2.1-1.8-4.2-3.5-7.9-2.4c2.8,7.3,5.7,14.6,8.5,21.9c5.5,14.3,11.6,28.4,13.9,43.9
				c3.4,22.8,0.9,44.8-7.5,66.2c-1.2,2.9-1.8,5.8-1.6,8.9c0.8,19.2,1.6,38.4,2.3,57.6c0.1,2.4,0.1,4.6-1.1,6.9
				C541.6,500.3,508,536.8,461.2,560c-6.5,3.2-13.5,5.4-20.7,6.3c-2.7,0.4-4.6,1.5-6.3,3.6c-14.7,17.6-33.5,27.2-56.4,29
				c-18.9,0-37.8,0-56.7,0c-22.8-1.9-41.6-11.6-56.3-29.2c-1.3-1.6-2.6-2.8-4.8-3.2c-18-2.7-33.6-11.1-48.1-21.5
				c-32.1-23.1-58.2-51.7-77.2-86.5c-2.2-4.1-3.2-8.2-3-12.9c0.9-18.7,1.6-37.3,2.4-56c0.1-2.6-0.3-4.9-1.2-7.4
				c-12.2-31-12.5-62.2-0.7-93.3c4.9-13,10.1-25.9,15.2-39.1c-3.3-1.6-5.5-0.1-7.7,1.8c-11.6,9.9-23.1,19.9-34.9,29.6
				C92.8,291,78,286.1,73.7,271.2z"/>
			<path class="st20" d="M459.5,114.2c9.9-0.2,18.7,4.2,28,6.4c5.3,1.3,10.6,2.5,15.9,3.4c9.1,1.6,17.1-1.8,25-5.5
				c28.5-13.4,60.9-1.6,74.1,26.9c3.2,6.8,4.5,14.1,5.1,21.5c1.3,18.2,2.8,36.4,4.1,54.6c1.1,15.2,2.3,30.3,3.1,45.5
				c0.2,3.1-1.4,5.9-4.6,7.4c-3.5,1.7-6.3,0.7-9-1.5c-11.4-9.6-23.1-18.8-33.9-28.9c-4.9-4.6-10.1-5.4-16.1-6.2
				c-22-2.8-40.8-13.4-58.6-25.7c-22.5-15.5-42.6-33.8-61.7-53.1c-5.1-5.1-9.8-10.7-14.9-15.8c-2.2-2.2-1.9-3.7-0.3-6
				C426.3,121.9,441.3,114.9,459.5,114.2z"/>
			<path class="st21" d="M411.7,363.8c9.3,2.1,18.8,3.9,28,6.5c14.1,3.9,23.7,13.7,29.2,26.6c8.3,19.3,14.9,39.3,18,60.2
				c1.6,10.4,0.3,20.7-2.6,30.7c-4.9,16.3-14,30.2-25.4,42.6c-5.8,6.3-13.3,10-21.8,11.4c-6.6,1.1-12.7,0.4-18.6-3.7
				c-19.8-13.7-39.9-27.1-59.9-40.5c-2.7-1.8-3.8-3.7-3.7-7c0.2-13.1,0.2-26.1,0-39.2c0-3,0.7-4.4,4-5.1c6.9-1.3,12.9-4.7,18-9.6
				c8.4-8.2,16.8-16.5,25.3-24.8c6.4-6.3,9.8-13.8,9.6-22.9C411.6,380.8,411.7,372.7,411.7,363.8z"/>
			<path class="st22" d="M432.9,553c-13.2,21.1-30.9,33.4-54.6,34.7c-19.2,1.1-38.5,1.1-57.6,0c-23.6-1.4-41.3-13.8-54.3-34.8
				c10.2,0.9,17.2-3.7,24.3-8.5c18.1-12.4,36.4-24.5,54.4-37c3.3-2.3,5.6-2.5,9.1-0.1c18.8,13,37.9,25.4,56.7,38.5
				C417.2,550.3,423.8,553.4,432.9,553z"/>
			<path class="st20" d="M561.8,309.2c-5.2-20.8-14.8-40-22-60.1c-0.9-2.4-3-2.9-5.1-3.5c-11-3.3-21.4-8-31.3-13.7
				c-29.8-17.2-55.1-39.8-79.3-64c-6.1-6.2-11.3-13.2-18-18.8c-1.5-1.5-3.4-0.9-5.2-0.9c-29.8,0-59.5,0.5-89.2-0.3
				c-12.8-0.3-23.6,1.1-30.4,13.2c-0.3,0.5-0.8,0.8-1.1,1.2c-16.2,16.9-33.2,32.9-51.7,47.2c-18.9,14.7-38.8,28-61.9,35.2
				c-4.7,1.5-7.2,3.8-8.9,8.3c-4.7,12.7-9.8,25.3-14.7,37.9c-11.2,28.9-11.6,57.8-0.3,86.7c1.5,3.8,2.2,7.5,2.1,11.6
				c-0.5,13.4-0.8,26.8-1.2,40.2c-0.1,3.3-0.3,6.5-0.8,9.7c-0.8,5.7-0.5,11.3,2.7,16.8c20.8,35.9,48.1,65.5,83.4,87.5
				c7.7,4.8,15.9,8.9,25.3,10.1c-5.4-5.4-13-7.3-18.6-12.3c-5.7-5.2-10.2-11.2-14.6-17.4c-2.1-3.4-4.2-6.8-6.4-10.1
				c-12.2-19-15.8-40.2-12.6-62c2.7-18.8,9.3-36.8,16.2-54.5c7.6-19.5,21.1-33.6,42.5-38.5c7.6-1.7,15.2-3.2,22.8-4.9
				c6.3-1.4,12.4-2.8,17.7-7.3c5.3-4.5,12-6.3,19.1-6.9c17.4-1.5,34.8-0.6,52.2-0.6c10,0,20,1.7,27.9,8.8c2.7,2.4,5.6,3.8,9,4.5
				c7.8,1.6,15.5,3.6,23.3,5c25.2,4.3,41.1,19.4,49.6,42.8c4.8,13.2,8.9,26.8,12.8,40.3c3.8,13.5,4.3,27.3,2,41.3
				c-2.9,17.8-12.1,32.4-22.1,46.7c-6.6,9.4-14.7,16.9-25.5,21.3c-1.9,0.8-4.3,1.2-4.2,4.6c8.3-1.9,15.9-5.2,23-9.4
				c35.8-21.7,63.3-51.5,84.7-87.2c1.6-2.7,3.7-5.5,3.6-9c-0.6-15.6-1.4-31.1-1.8-46.7c-0.3-8.6-1.1-17,2.3-25.6
				C565.6,354.6,567.5,332.1,561.8,309.2z"/>
			<path class="st20" d="M298.8,372.8c-2.2-11.5,9.3-21.3,19.8-22.2c20.6-1.7,41.3-1.7,61.9,0c11.2,1,21.7,11,19.7,21.3
				c-4.5-1.8-8.1-5.5-13.1-6.1c-13.3-1.6-23.6,7.8-24.7,22.1c-0.9,12.2,2.4,23,10.6,32.1c2,2.3,2,3.4-0.1,5.6
				c-12.2,13.4-32.4,15.8-46.2,0c-2.1-2.4-2.3-3.6-0.1-6.2c9.3-11.1,13.1-23.6,8.7-37.8c-5.1-16.6-21.2-21.2-34.7-10.1
				C300.1,371.9,299.5,372.3,298.8,372.8z"/>
			<path class="st21" d="M344.1,450.5c0-2.7-0.8-3.7-3.6-4.2c-6.9-1.3-12.9-4.6-18-9.5c-8.7-8.5-17.4-17-26-25.5
				c-6.2-6.2-9.3-13.7-9.2-22.5c0.1-8.2,0-16.4,0-24.8c-3.6,1-7.5,1.1-10.9,2.9c-22.5,2.6-39.1,9.1-50.1,38.9
				c-4.3,11.7-7.8,23.7-11.2,35.7c-10.2,36,2.5,65.5,27.4,90.8c7.7,7.8,17.9,11.5,29.3,9.4c0.5-0.1,1.1-0.2,1.6-0.3
				c1.8,0.2,3.1-0.7,4.5-1.6c21-14.2,42.1-28.4,63.1-42.6c2-1.3,3-2.6,3-5.2C344,478.1,344,464.3,344.1,450.5z"/>
			<path class="st20" d="M283.4,137.6c-6.9-10.7-16.7-17.4-28.7-21.1c-11.9-3.7-23.5-2.4-35.1,1.7c-17.9,6.4-35.5,9.5-53.2-1.3
				c-6.3-3.8-14.1-4.4-21.7-3.5c-20,0.6-35.1,9.9-45.5,26.7c-6.3,10.1-7.6,21.5-8.1,33.3c-0.8,17.1-2.7,34.1-4,51.2
				c-1.1,13.8-2,27.7-2.9,41.6c-0.2,3.3,0.7,6.1,3.6,8c2.9,1.9,6,2,8.6-0.1c2.8-2.3,6.2-3.8,8.1-7.1c0,0,0,0,0,0
				c1.2-0.8,2.5-1.4,3.6-2.4c8.8-7.5,17.6-15.1,26.3-22.7c1.9-1.7,3.8-3.3,6.6-3.4c17.9-0.6,33.8-7.2,49-16
				c35.9-20.9,65.4-49.5,93.5-79.7C285.2,140.7,284.6,139.4,283.4,137.6z"/>
			<path class="st23" d="M326.3,391.2c-0.6,8-2.5,14.7-7.1,20.4c-2.2,2.8-4.1,3.7-6.8,0.5c-3.5-4.2-7.9-7.4-11-12
				c-2.1-3.2-2.5-6.2-1.1-9.7c1.8-4.7,4.7-8.6,8.6-11.7c5.3-4.1,11.8-2.5,15.1,3.4C325.7,385.3,325.3,388.8,326.3,391.2z"/>
			<path class="st23" d="M373.4,391.6c-0.3-2.7,0.2-5.9,1.5-8.9c2.7-6.4,9.7-8.2,15.3-3.9c4.1,3.2,7,7.2,8.8,12.1
				c1.7,4.5,0.2,8.2-2.8,11.4c-3.3,3.6-6.9,6.9-10.3,10.4c-1.6,1.7-2.6,1.6-4.4,0C376.5,408.1,373.4,400.6,373.4,391.6z"/>
			<path d="M258.9,278.7c-21.6-0.1-39.6-13.1-43.6-28.9c-2.9-11.4,2.5-21.6,13.6-25.5c11.3-4,21.8-1.5,31.9,3.8
				c4.7,2.4,8.8,5.7,12.3,9.7c6.8,7.9,10.4,16.8,6.4,27.1C275.3,275.7,265.9,278.4,258.9,278.7z"/>
			<path d="M439.8,278.7c-6.4-0.3-14.6-3-19.3-11.8c-4.5-8.4-2.6-16.5,2-24.2c8-13.3,27-21.8,41.4-19.9
				c19.7,2.7,27.5,21.7,14.4,38.7C470,272.1,456.2,278.7,439.8,278.7z"/>
			<path d="M451,339.8c-13.6-0.1-24.3-11-24.2-24.7c0.1-12.8,11.6-24.2,24.4-24.3c13.5-0.1,24.7,11.3,24.6,25.1
				C475.7,329.7,465.1,339.8,451,339.8z"/>
			<path d="M247.4,339.8c-13.2-0.1-24.3-11.2-24.2-24.2c0.1-13.4,11.9-25,25.2-24.7c13.3,0.3,23.9,11.6,23.8,25.2
				C272.1,329.8,261.6,339.9,247.4,339.8z"/>
			<path class="st21" d="M255.2,267.8c-12.3-0.1-25.5-9-28.9-19.4c-2.2-6.8,0.7-12.3,7.6-14.2c12.5-3.6,30.3,5.3,35.2,17.4
				C272.9,261.2,267.2,267.9,255.2,267.8z"/>
			<path class="st21" d="M445.2,267.9c-7-0.1-12.2-1-15.1-6.3c-2.9-5.4-0.6-10.4,2.7-14.6c7.8-9.8,18-15.1,30.8-13.1
				c9.3,1.5,12.8,8.5,8.4,16.9C466,262,455.9,266.8,445.2,267.9z"/>
			<path class="st24" d="M458.5,310.5c-0.1,4-3.5,7.2-7.4,7.1c-3.9-0.2-7.1-3.6-6.9-7.6c0.1-4,3.6-7.2,7.4-7.1
				C455.5,303,458.6,306.4,458.5,310.5z"/>
			<path class="st24" d="M255,310.1c0.1,4.1-3.1,7.4-7.1,7.4c-3.9,0-7.3-3.3-7.4-7.2c-0.1-3.9,3.3-7.4,7.2-7.4
				C251.7,302.8,255,306.1,255,310.1z"/>
		</g>
	</g>
</g>
</svg>
