<?xml version="1.0" encoding="UTF-8"?>
<svg xmlns="http://www.w3.org/2000/svg" version="1.1" viewBox="0 0 1169.1 997">
  <defs>
    <style>
      .cls-1 {
        fill: #b9703e;
      }

      .cls-2 {
        fill: #bc4749;
      }

      .cls-3 {
        fill: #d78955;
      }

      .cls-4 {
        fill: #494a47;
      }

      .cls-5 {
        fill: #fafafa;
      }

      .cls-6 {
        fill: #333331;
      }
    </style>
  </defs>
  <!-- Generator: Adobe Illustrator 28.6.0, SVG Export Plug-In . SVG Version: 1.2.0 Build 709)  -->
  <g>
    <g id="Layer_1">
      <g>
        <g>
          <path class="cls-2" d="M82.9,668.7c9.8-6.3,20.7-10.6,32.6-12.7h.7c1.3-.4,4.2-1.1,8.8-2,6.1-1.3,14.2-2,24.5-2h52.9v102.8h-52.9c-12.6,0-23.7,4.2-33.3,12.7-9.4,7.8-14,18.1-14,30.7v193.2H0v-239.9l82.9-82.9Z"/>
          <path class="cls-2" d="M415.5,652c31.5,0,60.3,7.7,86.3,23.2,26,15.5,46.7,36.2,62.2,62.3,15.4,26.1,23.2,55.1,23.2,86.8s-7.7,60.8-23.2,87c-15.5,26.2-36.2,47.1-62.2,62.5-26,15.5-54.8,23.2-86.3,23.2s-60.3-7.7-86.3-23.2c-26-15.4-46.7-36.3-62.2-62.5-15.5-26.2-23.2-55.2-23.2-87s7.7-60.7,23.2-86.8c15.4-26.1,36.2-46.9,62.2-62.3,26-15.4,54.8-23.2,86.3-23.2ZM416.1,895.8c19.8,0,36.7-7,50.6-21.1,13.9-14,20.9-30.9,20.9-50.8s-7-36.7-20.9-50.8c-13.9-14-30.8-21.1-50.6-21.1s-36.3,7-50.3,21.1c-13.9,14-20.9,31-20.9,50.8s7,36.7,20.9,50.8c13.9,14,30.7,21.1,50.3,21.1Z"/>
          <path class="cls-2" d="M806.8,497v160.2h73.4v93h-73.4v241.2h-101.5v-241.2h-75.7v-93h75.7v-58.7l101.5-101.5Z"/>
          <path class="cls-2" d="M1095.6,497v160.2h73.4v93h-73.4v241.2h-101.5v-241.2h-75.7v-93h75.7v-58.7l101.5-101.5Z"/>
        </g>
        <g id="Layer_2">
          <g id="gH9HqS.tif">
            <g>
              <path d="M306.9,170.4c0-3.7,0-7.4.1-11.2,2.6-34.2,4.1-68.5,7.9-102.6,4.8-42.9,53.3-69.1,92-50.5,11.3,5.4,21.9,6.4,33.6,2.8,7.6-2.4,15.2-5.2,23.1-6.4,26-4.1,50.9,7.2,64.6,29.6,1.7,2.8,3.5,4,6.8,4,32.7-.1,65.4-.1,98.1,0,3.2,0,5.2-.8,6.9-3.7,15.4-25.5,45.1-36.5,73.4-27.7,3.6,1.1,7.3,2,11,3.3,13.3,4.7,25.6,3.7,38.8-2.5,37.9-17.6,85.3,9.3,90.3,50.9,2.8,22.9,3.8,46.2,5.5,69.3.9,12.6,1.7,25.1,2.7,37.6.7,8.7-2.1,15.4-9.8,19.8-7.2,4.1-15,3.1-22.2-3-11.5-9.7-22.8-19.3-34.2-29.1-2.1-1.8-4.2-3.5-7.9-2.4,2.8,7.3,5.7,14.7,8.6,22,5.5,14.4,11.7,28.6,14,44.2,3.4,22.9.9,45.1-7.5,66.6-1.2,2.9-1.8,5.8-1.6,9,.8,19.3,1.6,38.6,2.3,57.9.1,2.4.1,4.6-1.1,6.9-24.8,45.6-58.6,82.3-105.7,105.6-6.5,3.2-13.6,5.4-20.8,6.3-2.7.4-4.6,1.5-6.3,3.6-14.8,17.7-33.7,27.4-56.7,29.2h-57c-22.9-1.9-41.8-11.7-56.6-29.4-1.3-1.6-2.6-2.8-4.8-3.2-18.1-2.7-33.8-11.2-48.4-21.6-32.3-23.2-58.5-52-77.7-87-2.2-4.1-3.2-8.2-3-13,.9-18.8,1.6-37.5,2.4-56.3.1-2.6-.3-4.9-1.2-7.4-12.3-31.2-12.6-62.6-.7-93.9,4.9-13.1,10.2-26.1,15.3-39.3-3.3-1.6-5.5-.1-7.7,1.8-11.7,10-23.2,20-35.1,29.8-12.1,9.9-27,4.9-31.3-10.1Z"/>
              <path class="cls-4" d="M695,12.4c10-.2,18.8,4.2,28.2,6.4,5.3,1.3,10.7,2.5,16,3.4,9.2,1.6,17.2-1.8,25.1-5.5,28.7-13.5,61.3-1.6,74.5,27.1,3.2,6.8,4.5,14.2,5.1,21.6,1.3,18.3,2.8,36.6,4.1,54.9,1.1,15.3,2.3,30.5,3.1,45.8.2,3.1-1.4,5.9-4.6,7.4-3.5,1.7-6.3.7-9.1-1.5-11.5-9.7-23.2-18.9-34.1-29.1-4.9-4.6-10.2-5.4-16.2-6.2-22.1-2.8-41-13.5-58.9-25.9-22.6-15.6-42.9-34-62.1-53.4-5.1-5.1-9.9-10.8-15-15.9-2.2-2.2-1.9-3.7-.3-6,10.7-15.4,25.8-22.4,44.1-23.1Z"/>
              <path class="cls-3" d="M646.9,263.5c9.4,2.1,18.9,3.9,28.2,6.5,14.2,3.9,23.8,13.8,29.4,26.8,8.3,19.4,15,39.5,18.1,60.6,1.6,10.5.3,20.8-2.6,30.9-4.9,16.4-14.1,30.4-25.6,42.9-5.8,6.3-13.4,10.1-21.9,11.5-6.6,1.1-12.8.4-18.7-3.7-19.9-13.8-40.1-27.3-60.3-40.7-2.7-1.8-3.8-3.7-3.7-7,.2-13.2.2-26.3,0-39.4,0-3,.7-4.4,4-5.1,6.9-1.3,13-4.7,18.1-9.7,8.4-8.2,16.9-16.6,25.5-24.9,6.4-6.3,9.9-13.9,9.7-23-.2-8.2-.1-16.4-.1-25.3Z"/>
              <path class="cls-1" d="M668.3,453.8c-13.3,21.2-31.1,33.6-54.9,34.9-19.3,1.1-38.7,1.1-57.9,0-23.7-1.4-41.5-13.9-54.6-35,10.3.9,17.3-3.7,24.4-8.6,18.2-12.5,36.6-24.6,54.7-37.2,3.3-2.3,5.6-2.5,9.2-.1,18.9,13.1,38.1,25.6,57,38.7,6.3,4.5,13,7.6,22.1,7.2Z"/>
              <path class="cls-4" d="M797.9,208.6c-5.2-20.9-14.9-40.2-22.1-60.5-.9-2.4-3-2.9-5.1-3.5-11.1-3.3-21.5-8-31.5-13.8-30-17.3-55.4-40-79.8-64.4-6.1-6.2-11.4-13.3-18.1-18.9-1.5-1.5-3.4-.9-5.2-.9-30,0-59.9.5-89.7-.3-12.9-.3-23.7,1.1-30.6,13.3-.3.5-.8.8-1.1,1.2-16.3,17-33.4,33.1-52,47.5-19,14.8-39,28.2-62.3,35.4-4.7,1.5-7.2,3.8-9,8.3-4.7,12.8-9.9,25.5-14.8,38.1-11.3,29.1-11.7,58.1-.3,87.2,1.5,3.8,2.2,7.5,2.1,11.7-.5,13.5-.8,27-1.2,40.4-.1,3.3-.3,6.5-.8,9.8-.8,5.7-.5,11.4,2.7,16.9,20.9,36.1,48.4,65.9,83.9,88,7.7,4.8,16,9,25.5,10.2-5.4-5.4-13.1-7.3-18.7-12.4-5.7-5.2-10.3-11.3-14.7-17.5-2.1-3.4-4.2-6.8-6.4-10.2-12.3-19.1-15.9-40.4-12.7-62.4,2.7-18.9,9.4-37,16.3-54.8,7.6-19.6,21.2-33.8,42.8-38.7,7.6-1.7,15.3-3.2,22.9-4.9,6.3-1.4,12.5-2.8,17.8-7.3,5.3-4.5,12.1-6.3,19.2-6.9,17.5-1.5,35-.6,52.5-.6s20.1,1.7,28.1,8.9c2.7,2.4,5.6,3.8,9.1,4.5,7.8,1.6,15.6,3.6,23.4,5,25.3,4.3,41.3,19.5,49.9,43.1,4.8,13.3,9,27,12.9,40.5,3.8,13.6,4.3,27.5,2,41.5-2.9,17.9-12.2,32.6-22.2,47-6.6,9.5-14.8,17-25.7,21.4-1.9.8-4.3,1.2-4.2,4.6,8.3-1.9,16-5.2,23.1-9.5,36-21.8,63.7-51.8,85.2-87.7,1.6-2.7,3.7-5.5,3.6-9.1-.6-15.7-1.4-31.3-1.8-47-.3-8.7-1.1-17.1,2.3-25.8,8.6-21.9,10.5-44.6,4.7-67.6Z"/>
              <path class="cls-4" d="M533.4,272.6c-2.2-11.6,9.4-21.4,19.9-22.3,20.7-1.7,41.5-1.7,62.3,0,11.3,1,21.8,11.1,19.8,21.4-4.5-1.8-8.1-5.5-13.2-6.1-13.4-1.6-23.7,7.8-24.8,22.2-.9,12.3,2.4,23.1,10.7,32.3,2,2.3,2,3.4-.1,5.6-12.3,13.5-32.6,15.9-46.5,0-2.1-2.4-2.3-3.6-.1-6.2,9.4-11.2,13.2-23.7,8.8-38-5.1-16.7-21.3-21.3-34.9-10.2-.5.4-1.1.8-1.8,1.3Z"/>
              <path class="cls-3" d="M578.9,350.7c0-2.7-.8-3.7-3.6-4.2-6.9-1.3-13-4.6-18.1-9.6-8.8-8.6-17.5-17.1-26.2-25.7-6.2-6.2-9.4-13.8-9.3-22.6.1-8.2,0-16.5,0-24.9-3.6,1-7.5,1.1-11,2.9-22.6,2.6-39.3,9.2-50.4,39.1-4.3,11.8-7.8,23.8-11.3,35.9-10.3,36.2,2.5,65.9,27.6,91.3,7.7,7.8,18,11.6,29.5,9.5.5-.1,1.1-.2,1.6-.3,1.8.2,3.1-.7,4.5-1.6,21.1-14.3,42.3-28.6,63.5-42.9,2-1.3,3-2.6,3-5.2,0-14,0-27.9.1-41.7Z"/>
              <path class="cls-4" d="M517.9,36c-6.9-10.8-16.8-17.5-28.9-21.2-12-3.7-23.6-2.4-35.3,1.7-18,6.4-35.7,9.6-53.5-1.3-6.3-3.8-14.2-4.4-21.8-3.5-20.1.6-35.3,10-45.8,26.9-6.3,10.2-7.6,21.6-8.1,33.5-.8,17.2-2.7,34.3-4,51.5-1.1,13.9-2,27.9-2.9,41.8-.2,3.3.7,6.1,3.6,8s6,2,8.7-.1c2.8-2.3,6.2-3.8,8.1-7.1h0c1.2-.8,2.5-1.4,3.6-2.4,8.9-7.5,17.7-15.2,26.5-22.8,1.9-1.7,3.8-3.3,6.6-3.4,18-.6,34-7.2,49.3-16.1,36.1-21,65.8-49.8,94.1-80.2,1.7-2.1,1.1-3.4-.1-5.2Z"/>
              <path class="cls-6" d="M561,291.1c-.6,8-2.5,14.8-7.1,20.5-2.2,2.8-4.1,3.7-6.8.5-3.5-4.2-7.9-7.4-11.1-12.1-2.1-3.2-2.5-6.2-1.1-9.8,1.8-4.7,4.7-8.7,8.7-11.8,5.3-4.1,11.9-2.5,15.2,3.4,1.7,3.2,1.3,6.7,2.3,9.2Z"/>
              <path class="cls-6" d="M608.4,291.5c-.3-2.7.2-5.9,1.5-9,2.7-6.4,9.8-8.2,15.4-3.9,4.1,3.2,7,7.2,8.9,12.2,1.7,4.5.2,8.2-2.8,11.5-3.3,3.6-6.9,6.9-10.4,10.5-1.6,1.7-2.6,1.6-4.4,0-5-4.6-8.1-12.2-8.1-21.2Z"/>
              <path d="M493.2,177.9c-21.7-.1-39.8-13.2-43.9-29.1-2.9-11.5,2.5-21.7,13.7-25.7,11.4-4,21.9-1.5,32.1,3.8,4.7,2.4,8.9,5.7,12.4,9.8,6.8,7.9,10.5,16.9,6.4,27.3-4.2,10.9-13.7,13.6-20.7,13.9Z"/>
              <path d="M675.2,177.9c-6.4-.3-14.7-3-19.4-11.9-4.5-8.4-2.6-16.6,2-24.3,8-13.4,27.2-21.9,41.6-20,19.8,2.7,27.7,21.8,14.5,38.9-8.3,10.7-22.2,17.3-38.7,17.3Z"/>
              <path d="M686.5,239.4c-13.7-.1-24.4-11.1-24.3-24.8.1-12.9,11.7-24.3,24.5-24.4,13.6-.1,24.8,11.4,24.7,25.2-.1,13.9-10.8,24-24.9,24Z"/>
              <path d="M481.7,239.4c-13.3-.1-24.4-11.3-24.3-24.3.1-13.5,12-25.1,25.3-24.8,13.4.3,24,11.7,23.9,25.3-.1,13.8-10.7,23.9-24.9,23.8Z"/>
              <path class="cls-3" d="M489.5,166.9c-12.4-.1-25.7-9.1-29.1-19.5-2.2-6.8.7-12.4,7.6-14.3,12.6-3.6,30.5,5.3,35.4,17.5,3.8,9.7-1.9,16.4-14,16.3Z"/>
              <path class="cls-3" d="M680.6,167c-7-.1-12.3-1-15.2-6.3-2.9-5.4-.6-10.5,2.7-14.7,7.8-9.9,18.1-15.2,31-13.2,9.4,1.5,12.9,8.6,8.4,17-6,11.3-16.2,16.1-27,17.2Z"/>
              <path class="cls-5" d="M694,209.9c-.1,4-3.5,7.2-7.4,7.1-3.9-.2-7.1-3.6-6.9-7.6.1-4,3.6-7.2,7.4-7.1,3.9.1,7,3.5,6.9,7.6Z"/>
              <path class="cls-5" d="M489.3,209.5c.1,4.1-3.1,7.4-7.1,7.4s-7.3-3.3-7.4-7.2c-.1-3.9,3.3-7.4,7.2-7.4,4-.1,7.3,3.2,7.3,7.2Z"/>
            </g>
          </g>
        </g>
      </g>
    </g>
  </g>
</svg>